<svg viewBox="0 0 25 21" xmlns="http://www.w3.org/2000/svg">
<path d="M4.55078 4.5H6.55078V16.5H4.55078V4.5ZM7.55078 4.5H8.55078V16.5H7.55078V4.5ZM9.55078 4.5H12.5508V16.5H9.55078V4.5ZM13.5508 4.5H14.5508V16.5H13.5508V4.5ZM16.5508 4.5H18.5508V16.5H16.5508V4.5ZM19.5508 4.5H20.5508V16.5H19.5508V4.5ZM2.55078 2.5V6.5H0.550781V2.5C0.550781 1.96957 0.761495 1.46086 1.13657 1.08579C1.51164 0.710714 2.02035 0.5 2.55078 0.5H6.55078V2.5H2.55078ZM22.5508 0.5C23.0812 0.5 23.5899 0.710714 23.965 1.08579C24.3401 1.46086 24.5508 1.96957 24.5508 2.5V6.5H22.5508V2.5H18.5508V0.5H22.5508ZM2.55078 14.5V18.5H6.55078V20.5H2.55078C2.02035 20.5 1.51164 20.2893 1.13657 19.9142C0.761495 19.5391 0.550781 19.0304 0.550781 18.5V14.5H2.55078ZM22.5508 18.5V14.5H24.5508V18.5C24.5508 19.0304 24.3401 19.5391 23.965 19.9142C23.5899 20.2893 23.0812 20.5 22.5508 20.5H18.5508V18.5H22.5508Z"/>
</svg>
