<svg viewBox="0 0 16 16" xmlns="http://www.w3.org/2000/svg">
<path d="M10.4906 2.56578C10.1887 2.56578 9.96226 2.33937 9.96226 2.03748C9.96226 1.73559 9.73585 1.50917 9.43396 1.50917H6.49057C6.18868 1.50917 5.96227 1.73559 5.96227 2.03748C5.96227 2.33937 5.73585 2.56578 5.43396 2.56578C5.13207 2.56578 4.90566 2.33937 4.90566 2.03748V1.81106C4.90566 1.13182 5.43396 0.603516 6.11321 0.603516H9.5849C10.2642 0.603516 10.7925 1.13182 10.7925 1.81106V2.03748C10.9434 2.33937 10.717 2.56578 10.4906 2.56578ZM13.9623 15.396H2.11321C1.05661 15.396 0.150941 14.4903 0.150941 13.4337V9.73559C0.150941 9.05635 0.679248 8.52805 1.35849 8.52805C1.66038 8.52805 1.96227 8.67899 2.18868 8.82993C2.71698 9.28276 3.39623 9.50917 4.07547 9.50917H6.03774H6.11321C6.56604 9.50917 6.9434 9.73559 7.16981 10.0375C7.32076 10.2639 7.62265 10.4903 8.00001 10.4903C8.30189 10.4903 8.60377 10.3394 8.83019 10.0375C9.0566 9.73559 9.43397 9.50917 9.8868 9.50917H9.96226H11.9245C13.3585 9.50917 14.566 8.45257 14.8679 7.09408C14.8679 7.01861 14.9434 6.86767 14.9434 6.79219V5.58465C14.9434 5.05635 14.4906 4.60351 13.9623 4.60351H9.73585H6.26415H2.03773C1.50943 4.60351 1.05661 5.05635 1.05661 5.58465V7.09408C1.05661 7.39597 0.830187 7.62238 0.5283 7.62238C0.226413 7.62238 0 7.39597 0 7.09408V5.58465C0 4.52804 0.905659 3.62238 1.96226 3.62238H4.15094H4.90566H6.33962H6.56604H9.05661H9.28302H10.717H11.4717H13.6604C14.717 3.62238 15.6226 4.52804 15.6226 5.58465V6.56578C15.6226 7.54691 15.2453 8.45257 14.6415 9.20729C14.566 9.28276 14.4906 9.4337 14.3396 9.50917C14.2642 9.58465 14.1887 9.66012 14.0377 9.73559C14.0377 9.73559 14.0377 9.73559 13.9623 9.73559C13.8868 9.81106 13.8113 9.88653 13.6604 9.88653C13.6604 9.88653 13.5849 9.88654 13.5849 9.96201C13.5094 10.0375 13.434 10.0375 13.283 10.113C13.283 10.113 13.2075 10.1129 13.2075 10.1884C13.1321 10.2639 13.0566 10.2639 12.9057 10.2639H12.8302C12.7547 10.2639 12.6793 10.3394 12.5283 10.3394C12.4528 10.3394 12.4528 10.3394 12.3774 10.3394C12.3019 10.3394 12.1509 10.3394 12.0755 10.4148H12C11.8491 10.4148 11.6981 10.4148 11.5472 10.4148H10.1887C10.0377 10.4148 9.88679 10.4903 9.73585 10.6412C9.50943 11.0941 8.98113 11.396 8.45283 11.396H7.47169C6.94339 11.396 6.41509 11.0941 6.18868 10.6412C6.11321 10.4903 5.96226 10.4148 5.81132 10.4148H4.07547C3.09434 10.4148 2.18868 10.0375 1.50943 9.4337C1.43396 9.35823 1.43396 9.35823 1.35849 9.35823C1.20755 9.35823 1.13208 9.43371 1.13208 9.58465V13.2828C1.13208 13.8111 1.58491 14.2639 2.11321 14.2639H13.9623C14.4906 14.2639 14.9434 13.8111 14.9434 13.2828V12.7545C14.9434 12.4526 15.1698 12.2262 15.4717 12.2262C15.7736 12.2262 16 12.4526 16 12.7545V13.2828C15.9245 14.4903 15.0189 15.396 13.9623 15.396ZM15.3962 11.396C15.0943 11.396 14.8679 11.1696 14.8679 10.8677C14.8679 10.5658 15.0943 10.3394 15.3962 10.3394C15.6981 10.3394 15.9245 10.5658 15.9245 10.8677C15.9245 11.245 15.6981 11.396 15.3962 11.396Z"/>
</svg>
