<svg viewBox="0 0 16 14" xmlns="http://www.w3.org/2000/svg">
<path d="M12.6869 9.94916L10.1818 10.9997C10.101 10.9997 10.0202 11.0805 9.93939 11.0805C9.61616 11.0805 9.37374 10.838 9.37374 10.5148C9.37374 10.2724 9.53535 10.1108 9.69697 10.03L12.202 8.89865C12.3636 8.81785 12.4444 8.65623 12.4444 8.4138V1.54512C12.4444 1.3835 12.3636 1.30269 12.202 1.30269H12.1212L8.72727 2.83805C8.56566 2.91886 8.48485 3.08047 8.48485 3.3229V9.54512V10.5956C8.48485 11.1613 8 11.6461 7.43435 11.6461C7.27273 11.6461 7.11111 11.6461 7.03031 11.5653L3.15152 9.94916C2.58586 9.70673 2.18182 9.14108 2.18182 8.49461V1.14108C2.18182 0.57542 2.66667 0.0905725 3.23232 0.0905725C3.39394 0.0905725 3.47475 0.0905712 3.63636 0.171379L6.06061 1.14108C6.22222 1.22188 6.38384 1.3835 6.38384 1.62593C6.38384 1.94916 6.14142 2.19158 5.81818 2.19158C5.73738 2.19158 5.65657 2.19158 5.57576 2.11077L3.55556 1.22189H3.47475C3.31313 1.22189 3.23232 1.30269 3.23232 1.46431V8.333C3.23232 8.49461 3.31313 8.73703 3.47475 8.81784L7.03031 10.3532H7.11111C7.27273 10.3532 7.35354 10.2724 7.35354 10.1108V3.4037V3.16128C7.35354 2.51481 7.75758 1.94916 8.32323 1.70673L12.202 0.0905725C12.3636 0.00976439 12.4444 0.00976562 12.6061 0.00976562C13.1717 0.00976562 13.6566 0.494613 13.6566 1.06027V8.4138C13.6566 9.14108 13.2525 9.70673 12.6869 9.94916ZM15.2727 3.48451C14.9495 3.48451 14.7071 3.24209 14.7071 2.91885C14.7071 2.59562 14.9495 2.3532 15.2727 2.3532C15.596 2.3532 15.8384 2.59562 15.8384 2.91885C15.7576 3.24209 15.596 3.48451 15.2727 3.48451ZM14.9495 11.4845L9.37374 13.7471C8.88889 13.9088 8.40404 13.9896 7.91919 13.9896C7.43434 13.9896 6.94949 13.9088 6.46465 13.7471L0.888894 11.4845C0.404045 11.2421 0 10.6764 0 10.1108V4.05017V2.99966C0 2.67643 0.242428 2.43401 0.56566 2.43401C0.888892 2.43401 1.13131 2.67643 1.13131 2.99966V3.3229V3.96936V9.94916C1.13131 10.1108 1.21212 10.2724 1.37374 10.434L6.78788 12.6966C7.11111 12.8582 7.51515 12.9391 8 12.9391C8.40404 12.9391 8.80808 12.8582 9.21212 12.6966L14.6263 10.434C14.7879 10.3532 14.8687 10.1916 14.8687 9.94916V6.07037V5.4239V5.01986C14.8687 4.69663 15.1111 4.45421 15.4343 4.45421C15.7576 4.45421 16 4.69663 16 5.01986V6.07037V10.03C15.7576 10.6764 15.4343 11.1613 14.9495 11.4845Z"/>
</svg>
