<svg xmlns="http://www.w3.org/2000/svg" viewBox="0 0 512 512" xml:space="preserve"><path d="M170.3 403.9c10.7-12.2 17.1-28.2 17.1-45.7 0-38.4-31.2-69.6-69.6-69.6 -14.5 0-27.9 4.4-39 12 -1.6-10-2.5-20.3-2.5-30.5 0-49.2 18.8-95.9 53.1-131.3 25.4-26.3 57.3-44.3 92.1-52.6l-23.1 27.9 23.1 19.2 59.4-71.5L201.5 17.4l-14.7 26.2 24.9 14c-39.3 9.8-75.3 30.5-104.1 60.3 -39.7 41-61.5 95.1-61.5 152.2 0 20.2 2.8 40.2 8.2 59.4 -4 8.8-6.2 18.5-6.2 28.8 0 17.5 6.5 33.5 17.2 45.7 -37.7 14-64.7 50.4-64.7 92.9v15h234.5v-15C235.1 454.3 208.1 417.8 170.3 403.9zM117.8 318.7c21.8 0 39.6 17.7 39.6 39.6s-17.7 39.6-39.6 39.6c-21.8 0-39.6-17.7-39.6-39.6S95.9 318.7 117.8 318.7zM32.4 481.8c6.9-30.8 34.5-54 67.4-54h36.3c32.9 0 60.5 23.1 67.4 54H32.4z"/><path d="M511.4 208.3c0-42.6-27-79-64.9-93 10.7-12.2 17.1-28.2 17.1-45.7C463.6 31.2 432.4 0 394 0c-38.4 0-69.6 31.2-69.6 69.6 0 17.5 6.5 33.5 17.2 45.7 -37.7 14-64.7 50.4-64.7 92.9v15h171.7c3.7 14.9 5.6 30.2 5.6 45.8 0 45.4-16.3 89.3-46 123.6 -21.3 24.6-48.4 43.1-78.5 54.1l19.8-31 -25.3-16.2 -50 78.3L358.2 512l11.3-27.9 -26-10.6c33.4-12.8 63.5-33.8 87.3-61.3 34.4-39.7 53.3-90.6 53.3-143.3 0-15.5-1.6-30.8-4.8-45.8h32V208.3zM394 30.1c21.8 0 39.6 17.7 39.6 39.6 0 21.8-17.7 39.6-39.6 39.6s-39.6-17.7-39.6-39.6C354.4 47.8 372.2 30.1 394 30.1zM308.6 193.2c6.9-30.9 34.5-54 67.4-54h36.3c32.9 0 60.5 23.1 67.4 54H308.6z"/></svg>
