<svg viewBox="0 0 12 13" xmlns="http://www.w3.org/2000/svg">
<path fill-rule="evenodd" clip-rule="evenodd" d="M10.7667 0.866667L11.6933 1.98667C11.8867 2.21333 12 2.51333 12 2.83333V11.1667C12 11.9 11.4 12.5 10.6667 12.5H1.33333C0.6 12.5 0 11.9 0 11.1667V2.83333C0 2.51333 0.113333 2.21333 0.306667 1.98667L1.22667 0.866667C1.41333 0.64 1.68667 0.5 2 0.5H10C10.3133 0.5 10.5867 0.64 10.7667 0.866667ZM9.84002 1.83333H2.16002L1.62669 2.48H10.38L9.84002 1.83333ZM1.33333 11.1667V3.83333H10.6667V11.1667H1.33333ZM5.03333 5.16667H6.96667V7.16667H8.66667L6 9.83333L3.33333 7.16667H5.03333V5.16667Z"/>
</svg>
