<svg xmlns="http://www.w3.org/2000/svg" viewBox="0 0 48 48"><path d="M33.8 40H13.8C11.7 40 9.8 38.2 9.8 36V16C9.8 13.8 11.7 12 13.8 12H15.5C15.7 12 16 11.8 16 11.7 16.3 10.8 17.2 10 18.3 10H20.3C21.1 8.8 22.3 8 23.8 8 25.4 8 26.6 8.8 27.4 10H28.9C29.5 10 30 10.5 30 11.1 30 11.7 29.5 12.2 28.9 12.2H27.4C26.6 12.2 26 11.7 25.7 11.2 25.4 10.6 24.8 10.2 24 10.2 23.2 10.2 22.6 10.6 22.3 11.2 22 11.8 21.4 12.2 20.6 12.2H19.1C18.6 12.2 18.3 12.5 18.2 12.8 17.8 13.5 17.1 14.2 16.3 14.2H16.2 15.7 14.2C13.1 14.2 12.2 15.1 12.2 16.2V36.2C12.2 37.2 13.1 38.2 14.2 38.2H34.2C35.2 38.2 36.2 37.2 36.2 36.2V16.2C36.2 15.1 35.2 14.2 34.2 14.2H32.6C32.3 14.2 32.2 14.3 32.2 14.6V15.7C32.2 17.1 31.1 18.2 29.7 18.2H18.6C17.8 18.2 17.2 17.8 16.8 17.4 16.6 17.2 16.5 16.9 16.5 16.6 16.5 16 16.9 15.5 17.5 15.5 17.8 15.5 18.2 15.7 18.3 15.8 18.5 16 18.8 16.2 19.1 16.2H29.1C29.7 16.2 30.2 15.7 30.2 15.1V14C30.2 12.9 31.1 12 32.2 12H34.2C36.3 12 38.2 13.8 38.2 16V36C37.8 38.3 36 40 33.8 40ZM16.8 26C17.4 26 17.8 26.5 17.8 27.1 17.8 27.7 17.4 28.2 16.8 28.2 16.2 28.2 15.7 27.7 15.7 27.1 15.7 26.5 16.2 26 16.8 26ZM16.8 30C17.4 30 17.8 30.5 17.8 31.1 17.8 31.7 17.4 32.2 16.8 32.2 16.2 32.2 15.7 31.7 15.7 31.1 15.7 30.5 16.2 30 16.8 30ZM16.8 22C17.4 22 17.8 22.5 17.8 23.1 17.8 23.7 17.4 24.2 16.8 24.2 16.2 24.2 15.7 23.7 15.7 23.1 15.7 22.5 16.2 22 16.8 22ZM20.8 26H30.8C31.4 26 31.8 26.5 31.8 27.1 31.8 27.7 31.4 28.2 30.8 28.2H20.8C20.2 28.2 19.7 27.7 19.7 27.1 19.7 26.5 20.2 26 20.8 26ZM20.8 30H30.8C31.4 30 31.8 30.5 31.8 31.1 31.8 31.7 31.4 32.2 30.8 32.2H20.8C20.2 32.2 19.7 31.7 19.7 31.1 19.7 30.5 20.2 30 20.8 30ZM20.8 22H30.8C31.4 22 31.8 22.5 31.8 23.1 31.8 23.7 31.4 24.2 30.8 24.2H20.8C20.2 24.2 19.7 23.7 19.7 23.1 19.7 22.5 20.2 22 20.8 22Z" /></svg>
