<svg xmlns="http://www.w3.org/2000/svg" viewBox="0 0 14 15"><path fill-rule="evenodd" clip-rule="evenodd" d="M12 7.5C12 7.7 12 7.9 12 8.2L13.4 9.3C13.5 9.4 13.5 9.5 13.4 9.7L12.1 12C12 12.1 11.9 12.2 11.8 12.2 11.8 12.2 11.7 12.1 11.7 12.1L10 11.5C9.7 11.7 9.3 12 8.9 12.1L8.7 13.9C8.6 14 8.5 14.2 8.3 14.2H5.7C5.5 14.2 5.4 14 5.3 13.9L5.1 12.1C4.7 12 4.3 11.7 4 11.5L2.3 12.1C2.3 12.1 2.2 12.2 2.2 12.2 2.1 12.2 2 12.1 1.9 12L0.6 9.7C0.5 9.5 0.5 9.4 0.6 9.3L2 8.2C2 7.9 2 7.7 2 7.5 2 7.3 2 7.1 2 6.8L0.6 5.7C0.5 5.6 0.5 5.5 0.6 5.3L1.9 3C2 2.9 2.1 2.8 2.2 2.8 2.2 2.8 2.3 2.9 2.3 2.9L4 3.5C4.3 3.3 4.7 3 5.1 2.9L5.3 1.1C5.4 1 5.5 0.8 5.7 0.8H8.3C8.5 0.8 8.6 1 8.7 1.1L8.9 2.9C9.3 3 9.7 3.3 10 3.5L11.7 2.9C11.7 2.9 11.8 2.8 11.8 2.8 11.9 2.8 12 2.9 12.1 3L13.4 5.3C13.5 5.5 13.5 5.6 13.4 5.7L12 6.8C12 7.1 12 7.3 12 7.5ZM10.7 7.5C10.7 7.4 10.7 7.2 10.6 7L10.5 6.3 11.1 5.8 11.8 5.2 11.4 4.4 10.5 4.8 9.8 5 9.2 4.6C9 4.4 8.7 4.2 8.4 4.1L7.7 3.8 7.6 3.1 7.5 2.2H6.5L6.4 3.1 6.3 3.8 5.6 4.1C5.3 4.2 5 4.4 4.8 4.6L4.2 5 3.5 4.8 2.6 4.4 2.1 5.2 2.9 5.8 3.5 6.3 3.4 7C3.3 7.2 3.3 7.4 3.3 7.5 3.3 7.6 3.3 7.8 3.4 8L3.5 8.7 2.9 9.2 2.1 9.8 2.6 10.6 3.5 10.2 4.2 10 4.8 10.4C5 10.6 5.3 10.8 5.6 10.9L6.3 11.2 6.4 11.9 6.5 12.8H7.5L7.6 11.9 7.7 11.2 8.4 10.9C8.7 10.8 9 10.6 9.2 10.4L9.8 10 10.5 10.2 11.4 10.6 11.9 9.8 11.1 9.2 10.5 8.7 10.6 8C10.7 7.8 10.7 7.6 10.7 7.5ZM7 4.8C5.5 4.8 4.3 6 4.3 7.5 4.3 9 5.5 10.2 7 10.2 8.5 10.2 9.7 9 9.7 7.5 9.7 6 8.5 4.8 7 4.8ZM5.7 7.5C5.7 8.2 6.3 8.8 7 8.8 7.7 8.8 8.3 8.2 8.3 7.5 8.3 6.8 7.7 6.2 7 6.2 6.3 6.2 5.7 6.8 5.7 7.5Z" /></svg>
