<svg viewBox="0 0 14 14" xmlns="http://www.w3.org/2000/svg">
  <path fill-rule="evenodd" clip-rule="evenodd" d="M6.99967 0.199951C3.31301 0.199951 0.333008 3.17995 0.333008 6.86662C0.333008 10.5533 3.31301 13.5333 6.99967 13.5333C10.6863 13.5333 13.6663 10.5533 13.6663 6.86662C13.6663 3.17995 10.6863 0.199951 6.99967 0.199951ZM8.72634 4.19995L6.99967 5.92662L5.27301 4.19995L4.33301 5.13995L6.05967 6.86662L4.33301 8.59328L5.27301 9.53329L6.99967 7.80662L8.72634 9.53329L9.66634 8.59328L7.93967 6.86662L9.66634 5.13995L8.72634 4.19995ZM1.66634 6.86662C1.66634 9.80662 4.05967 12.2 6.99967 12.2C9.93967 12.2 12.333 9.80662 12.333 6.86662C12.333 3.92662 9.93967 1.53328 6.99967 1.53328C4.05967 1.53328 1.66634 3.92662 1.66634 6.86662Z"/>
</svg>
