<svg viewBox="0 0 16 16" xmlns="http://www.w3.org/2000/svg">
<path d="M7.40741 3.03703C7.70371 3.03703 7.92589 3.25926 7.92589 3.55556V8.22222L10.6666 9.85186C10.8889 10 10.9629 10.2963 10.8148 10.5185C10.6667 10.7407 10.3703 10.8148 10.1481 10.6667L7.1111 8.88889C7.1111 8.88889 7.11111 8.88889 7.03704 8.88889C7.03704 8.88889 7.03701 8.88889 6.96294 8.81481C6.96294 8.81481 6.96294 8.81482 6.96294 8.74075C6.96294 8.74075 6.96294 8.74074 6.96294 8.66667C6.96294 8.66667 6.96294 8.66666 6.96294 8.59259C6.96294 8.59259 6.96294 8.5926 6.96294 8.51852C6.96294 8.51852 6.96294 8.51852 6.96294 8.44444V3.48148C6.88886 3.25926 7.11111 3.03703 7.40741 3.03703ZM5.4074 14.963C5.7037 14.963 5.92593 15.1852 5.92593 15.4815C5.92593 15.7778 5.7037 16 5.4074 16C5.1111 16 4.88887 15.7778 4.88887 15.4815C4.88887 15.1852 5.18518 14.963 5.4074 14.963ZM7.92589 16H7.40741C7.11111 16 6.88888 15.7778 6.88888 15.4815C6.88888 15.1852 7.11111 14.963 7.40741 14.963H7.92589C11.7777 14.963 14.8889 11.8519 14.8889 8.00001C14.8889 4.14815 11.7777 1.03703 7.92589 1.03703C4.07404 1.03703 0.962954 4.14815 0.962954 8.00001C0.962954 10.2963 2.07406 12.2963 3.77776 13.5556C3.92591 13.6296 3.99997 13.7778 3.99997 13.9259C3.99997 14.2222 3.77774 14.4445 3.48145 14.4445C3.3333 14.4445 3.25925 14.3704 3.18518 14.3704C1.25925 12.8889 0 10.5926 0 8.00001C0 3.62963 3.55555 0 7.99999 0C12.3704 0 16 3.55556 16 8.00001C15.8518 12.4445 12.2963 16 7.92589 16Z" />
</svg>
