<svg viewBox="0 0 15 16" xmlns="http://www.w3.org/2000/svg">
<path d="M10.8917 12.0365C10.2431 12.0365 9.66648 12.3968 9.30612 12.9013H5.77457C5.41421 12.3968 4.83763 12.0365 4.18898 12.0365C3.54033 12.0365 2.96375 12.3968 2.60339 12.9013C2.02681 12.8293 1.59438 12.3968 1.59438 11.8203V4.97338H13.4142V11.8203C13.4142 12.3968 12.9818 12.8293 12.4052 12.9013C12.1169 12.3968 11.5404 12.0365 10.8917 12.0365ZM10.8917 14.9194C10.3151 14.9194 9.8827 14.4869 9.8827 13.9104C9.8827 13.3338 10.3151 12.9013 10.8917 12.9013C11.4683 12.9013 11.9007 13.3338 11.9007 13.9104C11.9007 14.4869 11.4683 14.9194 10.8917 14.9194ZM5.84665 14.9194C6.06286 14.6311 6.13493 14.2707 6.13493 13.9104C6.13493 13.8383 6.13493 13.8383 6.13493 13.7662H9.01783C9.01783 13.8383 9.01783 13.8383 9.01783 13.9104C9.01783 14.2707 9.08991 14.6311 9.30612 14.9194H5.84665ZM4.26106 14.9194C3.68448 14.9194 3.25204 14.4869 3.25204 13.9104C3.25204 13.3338 3.68448 12.9013 4.26106 12.9013C4.83764 12.9013 5.27006 13.3338 5.27006 13.9104C5.19799 14.4869 4.76556 14.9194 4.26106 14.9194ZM14.4953 14.9194H12.4773C12.6935 14.6311 12.7656 14.2707 12.7656 13.9104C12.7656 13.8383 12.7656 13.7662 12.7656 13.6941C13.7025 13.55 14.3512 12.7572 14.3512 11.7482V4.54095C14.3512 4.25266 14.135 4.10851 13.9188 4.10851H12.9818V3.8923C12.9818 2.66706 11.9728 1.65805 10.7476 1.65805C10.5314 1.65805 10.3872 1.65805 10.2431 1.73012C9.73856 0.793183 8.72954 0.144531 7.57638 0.144531C6.13493 0.144531 4.98178 1.08147 4.62142 2.45085C4.54935 2.45085 4.47727 2.45085 4.4052 2.45085C3.32411 2.45085 2.38717 3.0995 2.17095 4.10851H1.23402C1.08987 4.10851 1.01779 4.18058 0.945722 4.25266C0.873649 4.32473 0.801579 4.46887 0.801579 4.54095V11.8203C0.801579 12.7572 1.45023 13.55 2.38717 13.7662C2.38717 13.8383 2.38717 13.9104 2.38717 13.9824C2.38717 14.3428 2.45925 14.7032 2.67547 14.9914H0.801579C0.51329 14.9914 0.369141 15.2077 0.369141 15.4239C0.369141 15.7122 0.585362 15.8563 0.801579 15.8563H14.5674C14.8557 15.8563 14.9998 15.6401 14.9998 15.4239C14.9998 15.1356 14.7836 14.9194 14.4953 14.9194Z" />
</svg>
