<svg width="16" height="16" viewBox="0 0 16 16" fill="none" xmlns="http://www.w3.org/2000/svg">
  <path fill-rule="evenodd" clip-rule="evenodd" d="M0.666504 8C1.81984 5.07333 4.6665 3 7.99984 3C11.3332 3 14.1798 5.07333 15.3332 8C14.1798 10.9267 11.3332 13 7.99984 13C4.6665 13 1.81984 10.9267 0.666504 8ZM13.8799 8C12.7799 5.75333 10.5265 4.33333 7.99986 4.33333C5.47319 4.33333 3.21986 5.75333 2.11986 8C3.21986 10.2467 5.47319 11.6667 7.99986 11.6667C10.5265 11.6667 12.7799 10.2467 13.8799 8ZM7.99984 6.33333C8.91984 6.33333 9.6665 7.08 9.6665 8C9.6665 8.92 8.91984 9.66667 7.99984 9.66667C7.07984 9.66667 6.33317 8.92 6.33317 8C6.33317 7.08 7.07984 6.33333 7.99984 6.33333ZM4.99984 8C4.99984 6.34667 6.3465 5 7.99984 5C9.65317 5 10.9998 6.34667 10.9998 8C10.9998 9.65333 9.65317 11 7.99984 11C6.3465 11 4.99984 9.65333 4.99984 8Z" fill="black" fill-opacity="0.54"/>
</svg>
