<svg viewBox="0 0 16 16" xmlns="http://www.w3.org/2000/svg">
<path d="M15.5035 4.25776C15.4272 4.25776 15.4272 4.25776 15.5035 4.25776L14.2052 5.55609C14.0525 5.70883 14.0525 5.93795 14.2052 6.09069L14.5871 6.47256C14.8162 6.70167 14.9689 7.00716 14.9689 7.31265V7.38902C14.9689 7.46539 14.9689 7.46539 14.9689 7.54176C14.9689 8.38186 14.2816 9.06921 13.4415 9.06921C13.3651 9.06921 13.3651 9.06921 13.2887 9.06921H13.2124H9.241C8.63002 9.06921 8.09542 8.76373 7.63718 8.38186C7.48444 8.22912 7.17895 8.07637 6.94983 8.07637H6.4916H6.26248H2.52024C2.21475 8.07637 1.98563 8.30549 1.98563 8.61098C1.98563 8.76372 2.06201 8.84009 2.13838 8.99284L2.82573 9.68019C3.20759 10.0621 3.20759 10.673 2.82573 11.0549L1.14554 12.5823C0.91642 12.8115 0.91642 13.1933 1.14554 13.4224C1.14554 13.4224 1.14554 13.4224 1.14554 13.4988L2.52024 14.8735C2.74936 15.1026 3.13122 15.1026 3.36034 14.8735L5.04052 13.1933C5.42239 12.8115 6.03337 12.8878 6.41523 13.1933L7.10258 13.8807C7.17895 13.957 7.3317 14.0334 7.48444 14.0334C7.78993 14.0334 8.01905 13.8043 8.01905 13.4988V10.5203C8.01905 10.2148 8.24816 9.98568 8.55365 9.98568C8.85914 9.98568 9.08826 10.2148 9.08826 10.5203V13.2697C9.08826 13.3461 9.08826 13.3461 9.08826 13.4224V13.4988C9.08826 14.3389 8.40091 15.0263 7.56081 15.0263H7.48444C7.40807 15.0263 7.40807 15.0263 7.33169 15.0263C7.0262 14.9499 6.72072 14.7971 6.4916 14.6444L6.10974 14.2625C5.95699 14.1098 5.72788 14.1098 5.57513 14.2625L4.2768 15.4845C3.58945 16.1718 2.44387 16.1718 1.75652 15.4845L0.610933 14.3389C0.610933 14.3389 0.610928 14.3389 0.534556 14.2625C-0.152795 13.5752 -0.152795 12.4296 0.534556 11.7422L1.75652 10.5203C1.90926 10.3675 1.90926 10.1384 1.75652 9.98568L1.37466 9.60382C1.14554 9.3747 0.992795 9.06922 0.992795 8.76373V8.68735C0.992795 8.61098 0.992795 8.61098 0.992795 8.53461C0.992795 7.69451 1.68015 7.00716 2.52024 7.00716C2.59661 7.00716 2.59661 7.00716 2.67298 7.00716H2.74935H5.49876H6.72072C6.79709 7.00716 6.94983 7.00716 7.0262 7.00716C7.48444 7.08353 7.94267 7.31265 8.32454 7.69451C8.47728 7.84726 8.78277 8 9.01189 8H9.54649H9.77561H13.5178C13.8233 8 14.0525 7.77088 14.0525 7.46539C14.0525 7.31265 13.9761 7.23628 13.8997 7.08353L13.2124 6.39618C12.8305 6.01432 12.8305 5.40334 13.2124 5.02148L14.8926 3.34129C15.1217 3.11217 15.1217 2.80668 14.9689 2.57756L13.5178 1.12649C13.2887 0.897377 12.9069 0.897377 12.6778 1.12649L10.9976 2.80668C10.6157 3.18854 10.0047 3.11217 9.62286 2.80668L8.93551 2.11933C8.78277 2.04296 8.63002 2.04296 8.47728 2.04296C8.17179 2.04296 7.94267 2.27207 7.94267 2.57756V3.57041C7.94267 3.8759 7.71355 4.10501 7.40806 4.10501C7.10258 4.10501 6.87346 3.8759 6.87346 3.57041V2.80668C6.87346 2.73031 6.87346 2.73031 6.87346 2.65394V2.57756C6.87346 1.73747 7.56081 1.05012 8.40091 1.05012H8.47728C8.55365 1.05012 8.55365 1.05012 8.63003 1.05012C8.93552 1.12649 9.241 1.27923 9.47012 1.43198L9.85198 1.81384C10.0047 1.96658 10.2338 1.96658 10.3866 1.81384L11.6849 0.515513C12.3723 -0.171838 13.5179 -0.171838 14.2052 0.515513L15.4272 1.73747C16.1909 2.50119 16.1145 3.57041 15.5035 4.25776ZM7.48444 5.02148C7.78993 5.02148 8.01905 5.2506 8.01905 5.55609C8.01905 5.86157 7.78993 6.09069 7.48444 6.09069C7.17895 6.09069 6.94983 5.86157 6.94983 5.55609C6.94983 5.2506 7.17895 5.02148 7.48444 5.02148Z" />
</svg>
