<svg viewBox="0 0 24 24" fill="none" xmlns="http://www.w3.org/2000/svg">
<path d="M12.7935 10.4707C12.4876 10.4707 12.2582 10.2413 12.2582 9.93543C12.2582 9.62957 12.4876 9.40018 12.7935 9.40018C13.0994 9.40018 13.3288 9.62957 13.3288 9.93543C13.3288 10.2413 13.0994 10.4707 12.7935 10.4707ZM19.446 13.3764L16.9226 15.8997C16.5403 16.2821 16.005 16.5115 15.5462 16.5115C14.7051 16.5115 14.0169 15.8233 14.0169 14.9821V14.8292C14.0169 14.5998 13.864 14.4469 13.6346 14.4469C13.1758 14.4469 12.7935 14.2175 12.5641 13.8352L10.7289 10.6236C10.6525 10.4707 10.4995 10.3942 10.3466 10.3942C9.65842 10.3942 9.12318 9.85897 9.12318 9.17078V8.94138C9.12318 8.63552 8.89378 8.40613 8.58792 8.40613C8.51145 8.40613 8.51144 8.40613 8.43498 8.40613C8.20558 8.40613 8.05266 8.55906 7.82327 8.71199L5.29992 11.2353C4.91759 11.6177 4.91759 12.2294 5.29992 12.6882L7.82327 15.2115C7.9762 15.3645 8.20558 15.4409 8.43498 15.5174C8.51144 15.5174 8.51145 15.5174 8.58792 15.5174C8.89378 15.5174 9.12318 15.288 9.12318 14.9821V14.6763C9.12318 13.9881 9.65842 13.4528 10.3466 13.4528H10.576C10.8819 13.4528 11.1113 13.6822 11.1113 13.9881C11.1113 14.294 10.8819 14.5234 10.576 14.5234H10.4231C10.1937 14.5234 10.0407 14.6763 10.0407 14.9057V15.0586C10.0407 15.8997 9.35254 16.5879 8.51143 16.5879C7.97617 16.5879 7.51739 16.3585 7.13506 15.9762L4.61171 13.4528C4.22939 13.0705 4 12.5353 4 12C4 11.4647 4.22939 11.0059 4.61171 10.5472L7.13506 8.0238C7.51739 7.64147 8.05263 7.41208 8.51143 7.41208C9.35254 7.41208 10.0407 8.10027 10.0407 8.94138V9.09432C10.0407 9.32371 10.1937 9.47664 10.4231 9.47664H10.4996C10.9583 9.47664 11.3406 9.70604 11.57 10.0884L13.4052 13.2999C13.4817 13.4528 13.6346 13.5293 13.7875 13.5293C14.4757 13.5293 15.011 14.0646 15.011 14.7527V14.9821C15.011 15.288 15.2404 15.5174 15.5462 15.5174C15.6227 15.5174 15.6227 15.5174 15.6992 15.5174C15.9286 15.5174 16.0815 15.3645 16.3109 15.2115L18.8342 12.6882C19.2166 12.3059 19.2166 11.6941 18.8342 11.2353L16.3109 8.71199C16.158 8.55906 15.9286 8.48259 15.6992 8.40613C15.6227 8.40613 15.6227 8.40613 15.5462 8.40613C15.2404 8.40613 15.011 8.63552 15.011 8.94138V9.17078V9.93543C15.011 10.2413 14.7816 10.4707 14.4758 10.4707C14.1699 10.4707 13.9405 10.2413 13.9405 9.93543V9.17078V8.94138C13.9405 8.10027 14.6287 7.41208 15.4698 7.41208C16.0051 7.41208 16.4638 7.64147 16.8462 8.0238L19.3695 10.5472C19.7518 10.9295 19.9812 11.4647 19.9812 12C20.0577 12.4588 19.9048 12.994 19.446 13.3764Z" />
</svg>
