<svg xmlns="http://www.w3.org/2000/svg" viewBox="0 0 48 48"><path d="M23.3 19.9C22.7 19.9 22.3 19.4 22.3 18.8 22.3 18.2 22.7 17.8 23.3 17.8 23.9 17.8 24.4 18.2 24.4 18.8 24.4 19.4 23.9 19.9 23.3 19.9ZM40 20.8C40 22.4 38.6 23.8 37 23.8H36.5C35.9 23.6 35.3 23.3 34.9 23L34.1 22.3C33.8 22 33.4 22 33.1 22.3L30.5 24.8C28.6 26.8 25.6 26.8 23.6 24.8L22.9 24.1C21.8 23.2 20.5 23.2 19.4 24.1L16 27.5C15.2 28.3 14 28.1 13.3 27.5L11.9 26.2C11.8 26 11.5 25.9 11.2 25.9 10.6 25.9 10.1 26.3 10.1 26.9V34.7C10.1 36.4 11.5 37.7 13.1 37.7H20.9C21.5 37.7 22 37.3 22 36.7 22 36.4 21.8 36.2 21.7 35.9L20.3 34.6C19.6 33.8 19.6 32.6 20.3 31.9L23.6 28.6C23.8 28.4 24.1 28.3 24.4 28.3 25 28.3 25.4 28.7 25.4 29.3 25.4 29.6 25.3 29.9 25.1 30.1L22.3 32.9C22 33.2 22 33.7 22.3 34L23 34.7C23.5 35.2 23.8 35.8 23.8 36.4 23.8 36.4 23.8 36.7 23.8 36.8 23.8 38.5 22.4 39.8 20.8 39.8H12.5C10 39.8 8 37.9 8 35.3V27.1C8 25.4 9.4 24.1 11 24.1H11.5C12.1 24.2 12.7 24.5 13.1 24.8L13.9 25.6C14.2 25.9 14.6 25.9 14.9 25.6L17.5 23C19.4 21.1 22.4 21.1 24.4 23L25.1 23.8C26.2 24.7 27.5 24.7 28.6 23.8L32 20.3C32.8 19.6 34 19.7 34.7 20.3L36.1 21.7C36.2 21.8 36.5 22 36.8 22 37.4 22 37.9 21.5 37.9 20.9V13.1C37.9 11.5 36.5 10.1 34.9 10.1H27.1C26.5 10.1 26 10.6 26 11.2 26 11.5 26.2 11.6 26.3 11.9L27.7 13.3C28.4 14 28.4 15.2 27.7 16L26.8 16.9C26.6 17 26.3 17.2 26 17.2 25.4 17.2 25 16.7 25 16.1 25 15.8 25.1 15.5 25.3 15.4L25.6 15.1C25.9 14.8 25.9 14.3 25.6 14L24.8 13.3C24.4 12.8 24.1 12.2 24.1 11.6V11.5C24.1 11.5 24.1 11.3 24.1 11.2 24.1 9.5 25.4 8.2 27.1 8.2H35.3C37.9 8.2 39.8 10.1 39.8 12.7V20.8H40Z" /></svg>
