<svg  viewBox="0 0 17 20"  xmlns="http://www.w3.org/2000/svg">
  <path d="M10.5 0H2.5C1.96957 0 1.46086 0.210714 1.08579 0.585786C0.710714 0.960859 0.5 1.46957 0.5 2V18C0.5 18.5304 0.710714 19.0391 1.08579 19.4142C1.46086 19.7893 1.96957 20 2.5 20H14.5C15.0304 20 15.5391 19.7893 15.9142 19.4142C16.2893 19.0391 16.5 18.5304 16.5 18V6L10.5 0ZM5.998 14.19C5.689 14.48 5.233 14.61 4.702 14.61C4.59904 14.6111 4.49613 14.6051 4.394 14.592V16.018H3.5V12.082C3.90345 12.0218 4.31112 11.9944 4.719 12C5.276 12 5.672 12.106 5.939 12.319C6.193 12.521 6.365 12.852 6.365 13.242C6.364 13.634 6.234 13.965 5.998 14.19ZM9.805 15.545C9.385 15.894 8.746 16.06 7.965 16.06C7.497 16.06 7.166 16.03 6.941 16V12.083C7.3446 12.0241 7.75214 11.9963 8.16 12C8.917 12 9.409 12.136 9.793 12.426C10.208 12.734 10.468 13.225 10.468 13.93C10.468 14.693 10.189 15.22 9.805 15.545ZM13.5 12.77H11.968V13.681H13.4V14.415H11.968V16.019H11.062V12.03H13.5V12.77ZM10.5 7H9.5V2L14.5 7H10.5Z" />
</svg>
