<svg viewBox="0 0 24 24" xmlns="http://www.w3.org/2000/svg">
  <path d="M8.8 17.4857C9.10476 17.4857 9.33333 17.7143 9.33333 18.0191C9.33333 18.3238 9.10476 18.5524 8.8 18.5524C8.49524 18.5524 8.34286 18.2476 8.34286 18.0191C8.34286 17.7143 8.49524 17.4857 8.8 17.4857ZM19.9238 11.5429L18.5524 16.4952C18.2476 17.5619 17.1048 18.4762 16.0381 18.4762H15.0476H10.781C10.4762 18.4762 10.2476 18.2476 10.2476 17.9429C10.2476 17.6381 10.4762 17.4095 10.781 17.4095H16.0381C16.7238 17.4095 17.4095 16.8762 17.6381 16.1905L18.8571 11.6952C19.0095 11.0095 18.6286 10.4762 17.9429 10.4762H10.019C9.33333 10.4762 8.64762 11.0095 8.41905 11.6952L7.65714 14.4381L7.12381 16.2667C6.97143 16.9524 6.3619 17.4095 5.6 17.4095C4.7619 17.4095 4 16.7238 4 15.8095V9.40952C4 8.34286 4.8381 7.50476 5.90476 7.42857L6.66667 6.13333C6.89524 5.67619 7.50476 5.44762 8.03809 5.44762H11.0095C11.5429 5.44762 12.1524 5.75238 12.4571 6.13333L13.219 7.42857H17.5619C17.8667 7.42857 18.0952 7.65714 18.0952 7.9619C18.0952 8.26666 17.8667 8.49524 17.5619 8.49524H13.0667C12.7619 8.49524 12.4571 8.26667 12.3048 8.03809L11.7714 6.97143C11.619 6.66667 11.2381 6.51428 10.8571 6.51428H8.26667C7.88571 6.51428 7.50476 6.74286 7.35238 6.97143L6.81905 8.03809C6.66667 8.34286 6.4381 8.49524 6.05714 8.49524C5.6 8.49524 5.06667 9.02857 5.06667 9.71428V15.7333C5.06667 16.1143 5.37143 16.3429 5.67619 16.3429C5.98095 16.3429 6.20952 16.1143 6.28571 15.8857L7.50476 11.4667C7.80952 10.4 8.95238 9.48571 10.019 9.48571H18.4762C19.3905 9.48571 20 10.0952 20 10.9333C20 11.1619 20 11.3143 19.9238 11.5429Z"/>
</svg>
