<svg viewBox="0 0 16 16" xmlns="http://www.w3.org/2000/svg">
<path d="M14.4516 9.06913C14.7465 9.06913 14.9678 9.29032 14.9678 9.58525C14.9678 9.88019 14.7465 10.1014 14.4516 10.1014C14.1567 10.1014 13.9355 9.88019 13.9355 9.58525C13.9355 9.29032 14.1567 9.06913 14.4516 9.06913ZM15.9263 7.59447C15.9263 7.8894 15.7051 8.1106 15.4101 8.1106C15.1152 8.1106 14.894 7.8894 14.894 7.59447C14.894 7.44701 14.083 6.85714 13.8618 6.63595L13.3456 6.11982C13.0507 5.75115 12.9032 5.38249 12.9032 4.86636V2.65438C12.9032 2.35945 12.682 2.13826 12.3871 2.13826H11.4286C11.1336 2.13826 10.9125 2.35945 10.9125 2.65438V2.80185C10.9125 3.02304 10.765 3.17051 10.5438 3.17051C10.4701 3.17051 10.3226 3.09677 10.3226 3.09677L8.70047 1.47465C8.33181 1.10599 7.6682 1.10599 7.29954 1.47465L1.3272 7.44701C1.106 7.66821 1.03226 7.88941 1.03226 8.18434C1.03226 8.70047 1.47466 9.14287 1.84332 9.14287C2.28572 9.14287 3.02304 9.80646 3.02304 10.6175V14.083C3.02304 14.5991 3.46544 15.0415 3.98157 15.0415H5.45622C5.75115 15.0415 5.97235 14.8203 5.97235 14.5253V11.2811C5.97235 10.6175 6.56222 10.0277 7.22581 10.0277H8.70047C9.36406 10.0277 9.95392 10.6175 9.95392 11.2811V14.5253C9.95392 14.8203 10.1751 15.0415 10.4701 15.0415H11.9447C12.4608 15.0415 12.9032 14.5991 12.9032 14.083V10.5438C12.9032 10.2489 13.1244 10.0277 13.4194 10.0277C13.7143 10.0277 13.9355 10.2489 13.9355 10.5438V14.0092C13.9355 15.1152 13.0507 16 11.9447 16H10.4701C9.65899 16 8.9954 15.3364 8.9954 14.5253V11.576C8.9954 11.2811 8.7742 11.0599 8.47927 11.0599H7.52074C7.22581 11.0599 7.00461 11.2811 7.00461 11.576V14.5253C7.00461 15.3364 6.34102 16 5.52996 16H4.0553C2.94931 16 2.06452 15.1152 2.06452 14.0092V10.5438C2.06452 10.2489 1.84332 10.1014 1.54839 9.95392C0.663592 9.73272 0.0737305 8.9954 0.0737305 8.03687V8.1106C0.0737305 7.59447 0.221198 7.00462 0.663595 6.56222L6.63595 0.589864C7.00461 0.2212 7.52074 0 8.03687 0C8.553 0 9.06913 0.2212 9.4378 0.589864L10.3226 1.47465C10.5438 1.17972 10.9125 1.03226 11.2811 1.03226H12.7558C13.4194 1.03226 14.0092 1.62212 14.0092 2.28572V4.79263C14.0092 5.08756 14.083 5.30876 14.3042 5.45623L15.4101 6.56222C15.7051 7.07835 15.9263 7.22581 15.9263 7.59447Z"/>
</svg>
