<svg viewBox="0 0 14 15" xmlns="http://www.w3.org/2000/svg">
<path fill-rule="evenodd" clip-rule="evenodd" d="M6.99967 0.833008C3.31967 0.833008 0.333008 3.81967 0.333008 7.49967C0.333008 11.1797 3.31967 14.1663 6.99967 14.1663C10.6797 14.1663 13.6663 11.1797 13.6663 7.49967C13.6663 3.81967 10.6797 0.833008 6.99967 0.833008ZM6.33301 4.16634V5.49967H7.66634V4.16634H6.33301ZM6.33301 6.83301V10.833H7.66634V6.83301H6.33301ZM1.66634 7.49967C1.66634 10.4397 4.05967 12.833 6.99967 12.833C9.93967 12.833 12.333 10.4397 12.333 7.49967C12.333 4.55967 9.93967 2.16634 6.99967 2.16634C4.05967 2.16634 1.66634 4.55967 1.66634 7.49967Z" />
</svg>
