<svg viewBox="0 0 40 40" xmlns="http://www.w3.org/2000/svg">
<path d="M18.6999 32.0004C19.3999 32.0004 19.8999 32.5004 19.8999 33.2004C19.8999 33.9004 19.3999 34.4004 18.6999 34.4004C17.9999 34.4004 17.4999 33.9004 17.4999 33.2004C17.4999 32.7004 17.9999 32.0004 18.6999 32.0004ZM17.4999 23.5004C17.4999 22.8004 17.9999 22.3004 18.6999 22.3004C19.3999 22.3004 19.8999 22.8004 19.8999 23.5004V28.4004C19.8999 29.1004 19.3999 29.6004 18.6999 29.6004C17.9999 29.6004 17.4999 29.1004 17.4999 28.4004V23.5004ZM34.4999 39.4004H5.2999C2.5999 39.4004 0.399902 37.2004 0.399902 34.5004V23.5004C0.399902 22.8004 0.899903 22.3004 1.5999 22.3004C2.2999 22.3004 2.7999 22.8004 2.7999 23.5004V33.9004C2.7999 35.6004 4.1999 36.9004 5.7999 36.9004H33.7999C35.4999 36.9004 36.7999 35.5004 36.7999 33.9004V22.9004C36.7999 21.2004 35.3999 19.9004 33.7999 19.9004H11.9999H11.3999C9.3999 19.9004 7.6999 18.3004 7.6999 16.2004V15.6004V12.6004C7.6999 5.90039 13.1999 0.400391 19.8999 0.400391C26.5999 0.400391 32.0999 5.90039 32.0999 12.6004V13.8004C32.0999 14.5004 31.5999 15.0004 30.8999 15.0004C30.1999 15.0004 29.6999 14.5004 29.6999 13.8004V12.6004C29.6999 7.20039 25.2999 2.80039 19.9999 2.80039C14.5999 2.80039 10.1999 7.20039 10.1999 12.6004V14.4004V14.9004V15.7004C10.1999 16.7004 10.9999 17.5004 11.9999 17.5004H12.7999H13.2999H28.9999H29.5999H31.9999H32.5999H34.3999C37.0999 17.5004 39.2999 19.7004 39.2999 22.4004V34.6004C39.3999 37.2004 37.1999 39.4004 34.4999 39.4004ZM4.0999 19.8004C3.3999 19.8004 2.8999 19.3004 2.8999 18.6004C2.8999 17.9004 3.3999 17.4004 4.0999 17.4004C4.7999 17.4004 5.2999 17.9004 5.2999 18.6004C5.2999 19.3004 4.6999 19.8004 4.0999 19.8004Z" />
</svg>
