<svg xmlns="http://www.w3.org/2000/svg" viewBox="0 0 132 40">
  <path fill-rule="evenodd" clip-rule="evenodd" d="M94.5 12.23C99.79 12.23 100.76 16.38 100.76 18.59 100.76 19.76 100.76 21.14 98.85 21.14H91.11C91.11 23.43 92.71 24.49 94.76 24.49 96.13 24.49 97.1 24 97.85 23.49 98.19 23.26 98.45 23.14 98.85 23.14 99.64 23.14 100.3 23.8 100.3 24.66 100.3 25.18 100.04 25.58 99.76 25.83 99.22 26.35 97.56 27.58 94.73 27.58 90.39 27.58 87.71 25.18 87.71 19.82 87.76 15.01 90.25 12.23 94.5 12.23ZM91.22 18.3H97.42C97.42 16.73 96.53 15.21 94.5 15.21 92.71 15.18 91.39 16.24 91.22 18.3ZM63.32 25.81V17.82C63.32 15.04 62.18 12.23 57.92 12.26 55.78 12.26 54.44 12.98 53.44 14.35 52.67 13.09 51.38 12.26 48.81 12.26 46.73 12.26 45.41 13.26 44.81 14.18 44.81 13.23 44.07 12.46 43.13 12.46 42.19 12.46 41.44 13.21 41.44 14.18V25.81C41.44 26.75 42.16 27.47 43.13 27.47 44.1 27.47 44.81 26.78 44.81 25.81V18.68C44.81 16.79 45.61 15.38 47.95 15.38 49.98 15.38 50.7 16.61 50.7 18.45V25.81C50.7 26.75 51.38 27.47 52.38 27.47 53.32 27.47 54.07 26.78 54.07 25.81V18.42C54.07 16.64 54.95 15.38 57.21 15.38 59.23 15.38 59.95 16.61 59.95 18.45V25.81C59.95 26.75 60.63 27.47 61.63 27.47 62.58 27.47 63.32 26.78 63.32 25.81ZM67.92 27.47C68.86 27.47 69.6 26.72 69.6 25.75V14.18C69.6 13.23 68.86 12.46 67.92 12.46 66.97 12.46 66.23 13.21 66.23 14.18V25.75C66.23 26.69 66.97 27.47 67.92 27.47ZM85.14 17.82V25.81C85.14 26.78 84.39 27.47 83.45 27.47 82.45 27.47 81.77 26.75 81.77 25.81V18.45C81.77 16.61 81.05 15.38 79.03 15.38 76.68 15.38 75.88 16.79 75.88 18.68V25.81C75.88 26.78 75.17 27.47 74.2 27.47 73.23 27.47 72.51 26.75 72.51 25.81V14.18C72.51 13.21 73.26 12.46 74.2 12.46 75.14 12.46 75.88 13.23 75.88 14.18 76.48 13.26 77.8 12.26 79.88 12.26 84.14 12.23 85.14 15.04 85.14 17.82ZM106.53 14.38C107.13 13.12 108.58 12.32 109.9 12.32 110.78 12.32 111.5 13.06 111.5 13.95 111.5 14.84 110.78 15.58 109.9 15.58 107.73 15.58 106.53 16.99 106.53 19.13V25.81C106.53 26.78 105.79 27.52 104.84 27.52 103.9 27.52 103.16 26.75 103.16 25.81V14.21C103.16 13.23 103.9 12.49 104.84 12.49 105.79 12.49 106.53 13.26 106.53 14.21V14.38ZM113.67 14.9L118.49 26.26C117.47 28.9 116.52 30.53 114.5 30.53 113.58 30.53 112.87 31.22 112.87 32.13 112.87 33.08 113.58 33.74 114.5 33.74 117.64 33.74 119.61 31.5 120.98 28.35L126.8 14.9C126.86 14.75 126.92 14.52 126.92 14.24 126.92 13.29 126.18 12.52 125.23 12.52 124.29 12.52 123.81 13.18 123.66 13.61L120.24 22.51 116.81 13.61C116.64 13.18 116.18 12.52 115.24 12.52 114.3 12.52 113.55 13.26 113.55 14.24 113.55 14.52 113.61 14.72 113.67 14.9Z" fill="#515050"/>
  <path fill-rule="evenodd" clip-rule="evenodd" d="M4.15 16.36C4.75 9.37 10.4 3.99 17.54 3.99 24.68 3.99 30.48 9.31 31.28 16.36 31.33 16.99 30.82 17.53 30.19 17.53H5.23C4.6 17.53 4.09 16.99 4.15 16.36ZM14.83 13.15C14.83 14.72 16.11 16.01 17.68 16.01 19.25 16.01 20.54 14.72 20.54 13.15 20.54 11.57 19.25 10.29 17.68 10.29 16.11 10.29 14.83 11.57 14.83 13.15Z" fill="#7FD344"/>
  <path d="M27.79 20.79C27.79 19.71 26.94 18.82 25.82 18.82 24.74 18.82 23.85 19.68 23.85 20.79V24.95C23.85 26.64 23.19 28.21 22.02 29.41 20.85 30.62 19.28 31.25 17.6 31.25 15.91 31.25 14.34 30.59 13.17 29.38 12 28.21 11.37 26.64 11.4 24.95V20.74C11.4 19.68 10.54 18.82 9.49 18.82 8.43 18.82 7.57 19.68 7.57 20.74V24.95 24.97C7.6 30.53 12.09 35.03 17.63 35.03 20.34 35.03 22.88 33.97 24.82 32.02 26.71 30.13 27.76 27.61 27.76 25L27.79 20.79Z" fill="#7FD344"/>
  <path d="M66.69 7.88C67.03 7.59 67.43 7.45 67.92 7.48 68.37 7.51 68.77 7.68 69.09 8 69.4 8.31 69.57 8.74 69.54 9.23 69.52 9.71 69.34 10.11 68.97 10.4 68.63 10.69 68.2 10.83 67.75 10.8 67.26 10.77 66.86 10.6 66.55 10.29 66.23 9.97 66.09 9.54 66.12 9.06 66.15 8.57 66.35 8.2 66.69 7.88Z" fill="#7FD344"/>
</svg>
