<svg viewBox="0 0 12 14" xmlns="http://www.w3.org/2000/svg">
<path fill-rule="evenodd" clip-rule="evenodd" d="M9.08366 4.66667H9.75033C10.4837 4.66667 11.0837 5.26667 11.0837 6V12.6667C11.0837 13.4 10.4837 14 9.75033 14H1.75033C1.01699 14 0.416992 13.4 0.416992 12.6667V6C0.416992 5.26667 1.01699 4.66667 1.75033 4.66667H2.41699V3.33333C2.41699 1.49333 3.91033 0 5.75033 0C7.59032 0 9.08366 1.49333 9.08366 3.33333V4.66667ZM5.75033 1.33333C4.64366 1.33333 3.75033 2.22667 3.75033 3.33333V4.66667H7.75033V3.33333C7.75033 2.22667 6.85699 1.33333 5.75033 1.33333ZM1.75033 12.6667V6H9.75033V12.6667H1.75033ZM7.08366 9.33333C7.08366 10.0667 6.48366 10.6667 5.75033 10.6667C5.01699 10.6667 4.41699 10.0667 4.41699 9.33333C4.41699 8.6 5.01699 8 5.75033 8C6.48366 8 7.08366 8.6 7.08366 9.33333Z"/>
</svg>
