<svg viewBox="0 0 4 12" xmlns="http://www.w3.org/2000/svg">
<path d="M1.99996 3.33366C2.73329 3.33366 3.33329 2.73366 3.33329 2.00033C3.33329 1.26699 2.73329 0.666992 1.99996 0.666992C1.26663 0.666992 0.666626 1.26699 0.666626 2.00033C0.666626 2.73366 1.26663 3.33366 1.99996 3.33366ZM1.99996 4.66699C1.26663 4.66699 0.666626 5.26699 0.666626 6.00033C0.666626 6.73366 1.26663 7.33366 1.99996 7.33366C2.73329 7.33366 3.33329 6.73366 3.33329 6.00033C3.33329 5.26699 2.73329 4.66699 1.99996 4.66699ZM0.666626 10.0003C0.666626 9.26699 1.26663 8.66699 1.99996 8.66699C2.73329 8.66699 3.33329 9.26699 3.33329 10.0003C3.33329 10.7337 2.73329 11.3337 1.99996 11.3337C1.26663 11.3337 0.666626 10.7337 0.666626 10.0003Z"/>
</svg>
