<svg viewBox="0 0 16 14" xmlns="http://www.w3.org/2000/svg">
<path d="M1.56025 1.50111C1.26306 1.50111 1.04016 1.27821 1.04016 0.981019C1.04016 0.683828 1.26306 0.460938 1.56025 0.460938C1.85744 0.460938 2.08033 0.683828 2.08033 0.981019C2.08033 1.27821 1.85744 1.50111 1.56025 1.50111ZM15.4539 3.43284L9.4358 8.93088C8.69282 9.67385 7.35546 9.67385 6.61249 8.93088L3.1205 5.43888L2.8976 5.21599L1.93174 4.25012C1.85744 4.10153 1.70885 4.02723 1.56025 4.02723C1.26306 4.02723 1.04016 4.25012 1.04016 4.54731V5.95897V6.55334V11.5313C1.04016 12.0514 1.48595 12.4972 2.00603 12.4972H13.968C14.488 12.4972 14.9338 12.0514 14.9338 11.5313V5.51318C14.9338 5.21599 15.1567 4.9931 15.4539 4.9931C15.7511 4.9931 15.974 5.21599 15.974 5.51318V11.5313C15.974 12.6458 15.0824 13.5373 13.968 13.5373H2.00603C0.89157 13.5373 0 12.6458 0 11.5313V4.54731C0 3.73003 0.668679 3.06136 1.48595 3.06136C1.85744 3.06136 2.22893 3.20996 2.45182 3.50715L7.20687 8.26219C7.57836 8.63368 8.24703 8.63368 8.61852 8.26219L14.6366 2.76417C14.8595 2.54128 14.9338 2.31838 14.9338 2.09548C14.9338 1.5754 14.488 1.5754 13.968 1.5754H3.49199C3.1948 1.5754 2.97191 1.35251 2.97191 1.05532C2.97191 0.75813 3.1948 0.53524 3.49199 0.53524H13.968C14.8595 0.53524 15.6768 0.832433 15.8997 1.50111C16.1226 2.16979 15.974 2.91276 15.4539 3.43284ZM12.7792 10.9369L11.3675 9.52525C11.1447 9.30236 11.1447 9.00517 11.3675 8.78227C11.5904 8.55938 11.8876 8.55938 12.1105 8.78227L13.5222 10.1939C13.7451 10.4168 13.7451 10.714 13.5222 10.8626C13.2993 11.1598 13.0021 11.1598 12.7792 10.9369ZM2.60042 10.9369C2.37753 10.714 2.37753 10.4168 2.60042 10.2682L4.01207 8.85658C4.23496 8.63368 4.53215 8.63368 4.75505 8.85658C4.97794 9.07947 4.97794 9.37666 4.75505 9.59955L3.34339 11.0112C3.1205 11.1598 2.82331 11.1598 2.60042 10.9369Z" />
</svg>
