<svg viewBox="0 0 14 15" xmlns="http://www.w3.org/2000/svg">
<path fill-rule="evenodd" clip-rule="evenodd" d="M7.00065 0.833008C3.32065 0.833008 0.333984 3.81967 0.333984 7.49967C0.333984 11.1797 3.32065 14.1663 7.00065 14.1663C10.6807 14.1663 13.6673 11.1797 13.6673 7.49967C13.6673 3.81967 10.6807 0.833008 7.00065 0.833008ZM3.71396 11.6863C4.00063 11.0863 5.74729 10.4997 7.00063 10.4997C8.25396 10.4997 10.0073 11.0863 10.2873 11.6863C9.38063 12.4063 8.24063 12.833 7.00063 12.833C5.76063 12.833 4.62063 12.4063 3.71396 11.6863ZM7.00065 9.16634C7.97398 9.16634 10.2873 9.55967 11.2407 10.7197C11.9207 9.82634 12.334 8.71301 12.334 7.49967C12.334 4.55967 9.94065 2.16634 7.00065 2.16634C4.06065 2.16634 1.66732 4.55967 1.66732 7.49967C1.66732 8.71301 2.08065 9.82634 2.76065 10.7197C3.71398 9.55967 6.02732 9.16634 7.00065 9.16634ZM7.00065 3.49967C5.70732 3.49967 4.66732 4.53967 4.66732 5.83301C4.66732 7.12634 5.70732 8.16634 7.00065 8.16634C8.29398 8.16634 9.33398 7.12634 9.33398 5.83301C9.33398 4.53967 8.29398 3.49967 7.00065 3.49967ZM6.00065 5.83301C6.00065 6.38634 6.44732 6.83301 7.00065 6.83301C7.55398 6.83301 8.00065 6.38634 8.00065 5.83301C8.00065 5.27967 7.55398 4.83301 7.00065 4.83301C6.44732 4.83301 6.00065 5.27967 6.00065 5.83301Z" />
</svg>
