<svg viewBox="0 0 24 24" xmlns="http://www.w3.org/2000/svg">
<path d="M4.52322 10.9162C4.22424 10.9162 4 10.6919 4 10.393C4 10.094 4.22424 9.86974 4.52322 9.86974C4.8222 9.86974 5.04645 10.094 5.04645 10.393C4.9717 10.6919 4.74746 10.9162 4.52322 10.9162ZM18.0522 18.9887H9.00798H8.03628H6.98984C5.34543 18.9887 4 17.6433 4 15.9989V12.4858C4 12.1869 4.22424 11.9626 4.52322 11.9626C4.8222 11.9626 5.04645 12.1869 5.04645 12.4858V13.0091V13.5323V16.0737C5.04645 17.1948 5.94339 18.0918 7.06458 18.0918H8.33527H9.97968H17.7533C18.426 18.0918 19.0239 17.4938 19.0239 16.8211V7.25363C19.0239 6.58092 18.426 5.98295 17.7533 5.98295H8.26052C7.58781 5.98295 6.98984 6.58092 6.98984 7.25363V10.5424V11.0657V15.5504C6.98984 15.8494 6.7656 16.0737 6.46662 16.0737C6.16764 16.0737 5.94339 15.8494 5.94339 15.5504V12.5606V11.0657V10.0192V9.79499V7.02939C5.94339 5.9082 6.84035 5.01125 7.96154 5.01125H17.9775C19.0987 5.01125 19.9956 5.9082 19.9956 7.02939V16.9706C20.0704 18.0918 19.1734 18.9887 18.0522 18.9887ZM8.48476 12.9343H10.5029C10.8019 12.9343 11.0261 13.1586 11.0261 13.4576C11.0261 13.7565 10.8019 13.9808 10.5029 13.9808H8.48476C8.18578 13.9808 7.96154 13.7565 7.96154 13.4576C8.03629 13.1586 8.26052 12.9343 8.48476 12.9343ZM8.48476 14.9525H10.5029C10.8019 14.9525 11.0261 15.1767 11.0261 15.4757C11.0261 15.7747 10.8019 15.9989 10.5029 15.9989H8.48476C8.18578 15.9989 7.96154 15.7747 7.96154 15.4757C8.03629 15.1767 8.26052 14.9525 8.48476 14.9525ZM8.03628 9.19703C8.03628 8.52432 8.63425 7.92634 9.30696 7.92634H12.82C13.4927 7.92634 14.0907 8.52432 14.0907 9.19703V9.94449V11.4394C14.0907 11.7384 13.8665 11.9626 13.5675 11.9626C13.2685 11.9626 13.0443 11.7384 13.0443 11.4394V9.94449V9.42126C13.0443 9.12228 12.82 8.89804 12.521 8.89804H9.5312C9.23222 8.89804 9.00798 9.12228 9.00798 9.42126V10.393C9.00798 10.6919 9.23222 10.9162 9.5312 10.9162H11.5493C11.8483 10.9162 12.0726 11.1404 12.0726 11.4394C12.0726 11.7384 11.8483 11.9626 11.5493 11.9626H9.30696C8.63425 11.9626 8.03628 11.3647 8.03628 10.692V9.19703ZM12.521 12.9343H17.529C17.828 12.9343 18.0522 13.1586 18.0522 13.4576C18.0522 13.7565 17.828 13.9808 17.529 13.9808H12.521C12.2221 13.9808 11.9978 13.7565 11.9978 13.4576C11.9978 13.1586 12.2221 12.9343 12.521 12.9343ZM12.521 14.9525H17.529C17.828 14.9525 18.0522 15.1767 18.0522 15.4757C18.0522 15.7747 17.828 15.9989 17.529 15.9989H12.521C12.2221 15.9989 11.9978 15.7747 11.9978 15.4757C11.9978 15.1767 12.2221 14.9525 12.521 14.9525ZM17.529 11.9626H15.5109C15.2119 11.9626 14.9877 11.7384 14.9877 11.4394C14.9877 11.1404 15.2119 10.9162 15.5109 10.9162H17.529C17.828 10.9162 18.0522 11.1404 18.0522 11.4394C18.0522 11.7384 17.828 11.9626 17.529 11.9626ZM17.529 9.94449H15.5109C15.2119 9.94449 14.9877 9.72024 14.9877 9.42126C14.9877 9.12228 15.2119 8.89804 15.5109 8.89804H17.529C17.828 8.89804 18.0522 9.12228 18.0522 9.42126C18.0522 9.72024 17.828 9.94449 17.529 9.94449Z" />
</svg>
