<svg viewBox="0 0 39 38" xmlns="http://www.w3.org/2000/svg">
<path d="M38.8 28.8C38.5 33.8 34.4 37.8 29.3 37.8H21C20.3 37.8 19.8 37.3 19.8 36.6C19.8 35.9 20.3 35.4 21 35.4H29.3C33.2001 35.4 36.4001 32.2 36.4001 28.3V23.6V20C36.4001 18 34.8 16.4 32.8 16.4H29.8C27.8 16.4 26.2001 14.8 26.2001 12.8C26.2001 12.4 26.3001 12 26.4001 11.7C26.7001 10.8 26.8 10.1 26.8 9.3V4.5C26.8 3.2 25.7001 2.1 24.4001 2.1C23.1001 2.1 22 3.2 22 4.5V5.7V6.3C22 8.6 19.5 11.4 17 13.9C16.3 14.6 15.4 15.4 14.4 16.1C13.3 16.9 12.6 18.2 12.6 19.7V29.5V30.7V32.5C12.6 32.9 12.5 33.2 12.4 33.5C12.4 33.6 12.3 33.7 12.2 33.9C12.2 33.9 12.2 34 12.1 34C12 34 12 34.1 11.9 34.2C11.9 34.2 11.9 34.3 11.8 34.3C11.7 34.5 11.5 34.6 11.4 34.7C11.3 34.7 11.3 34.8 11.2 34.8C11.1 34.8 11.1 34.9 11 34.9C10.9 35 10.8 35 10.7 35C10.6 35 10.6 35.1 10.5 35.1C10.4 35.1 10.3 35.2 10.2 35.2C10.1 35.2 10.1 35.2 10 35.2C9.80005 35.2 9.60005 35.3 9.50005 35.3H7.70005H7.10005H5.60005C3.00005 35.3 0.800049 33.2 0.800049 30.6V18.8C0.800049 16.2 2.90005 14 5.60005 14H6.80005C7.50005 14 8.00005 14.5 8.00005 15.2C8.00005 15.9 7.50005 16.4 6.80005 16.4H5.60005C4.30005 16.4 3.20005 17.5 3.20005 18.8V30.7C3.20005 32 4.30005 33.1 5.60005 33.1H7.40005H8.00005H9.20005C9.90005 33.1 10.4 32.6 10.4 31.9V30.7V19.8C10.4 17.6 11.5 15.6 13.1 14.4C13.3 14.3 13.5 14.1 13.7 14C13.8 13.9 13.9 13.8 14 13.7C17 11.3 19.9 8.2 19.9 4.7C19.9 2.1 22 0 24.7001 0C27.3001 0 29.4001 2.1 29.4001 4.7V10C29.4001 10.9 29.2001 12 28.9001 12.9C28.9001 13 28.8 13.1 28.8 13.2C28.8 13.7 29.2001 14.1 29.7001 14.1H34.2001C36.8 14.1 38.9001 16.2 38.9001 18.9V23.7V28.4C38.8001 28.5 38.8 28.6 38.8 28.8ZM16.3 33C17 33 17.5 33.5 17.5 34.2C17.5 34.9 17 35.4 16.3 35.4C15.6 35.4 15.1 34.9 15.1 34.2C15.1 33.5 15.6 33 16.3 33Z" />
</svg>
