<svg viewBox="0 0 15 15" xmlns="http://www.w3.org/2000/svg">
<path fill-rule="evenodd" clip-rule="evenodd" d="M7.50016 0.833008C3.82016 0.833008 0.833496 3.81967 0.833496 7.49967C0.833496 11.1797 3.82016 14.1663 7.50016 14.1663C11.1802 14.1663 14.1668 11.1797 14.1668 7.49967C14.1668 3.81967 11.1802 0.833008 7.50016 0.833008ZM6.8335 4.16634V6.83301H4.16683V8.16634H6.8335V10.833H8.16683V8.16634H10.8335V6.83301H8.16683V4.16634H6.8335ZM2.16683 7.49967C2.16683 10.4397 4.56016 12.833 7.50016 12.833C10.4402 12.833 12.8335 10.4397 12.8335 7.49967C12.8335 4.55967 10.4402 2.16634 7.50016 2.16634C4.56016 2.16634 2.16683 4.55967 2.16683 7.49967Z" />
</svg>
