<svg viewBox="0 0 16 16" xmlns="http://www.w3.org/2000/svg">
<path d="M4.36899 0.572026L5.8181 2.02113C5.89437 2.0974 5.97064 2.17366 6.04691 2.3262C6.04691 2.3262 6.12317 2.40248 6.12317 2.47875C6.12317 2.55502 6.19944 2.555 6.19944 2.63127C6.27571 2.78381 6.27571 2.86008 6.35198 3.01262C6.50452 3.69904 6.35198 4.38546 5.8181 4.91934L5.74183 5.07189C5.28422 5.83458 5.36049 6.90233 6.04691 7.51248L8.0299 9.49547C8.2587 9.72428 8.2587 10.0294 8.0299 10.1819C7.80109 10.4107 7.49601 10.4107 7.34348 10.1819L5.36049 8.27517C4.21645 7.13113 4.21645 5.37695 5.20795 4.15665C5.58929 3.77531 5.51302 3.16516 5.20795 2.78382L3.75884 1.33471C3.37749 0.95337 2.76734 0.95337 2.30973 1.33471L1.62331 2.02113L1.54704 2.0974C0.250468 3.69905 1.62331 7.35996 5.13168 10.8683C8.64005 14.3767 12.301 15.7495 13.8263 14.453C13.9026 14.453 13.9026 14.3767 13.9026 14.3767L13.9789 14.3004L14.589 13.6903C14.9704 13.3089 14.9704 12.6988 14.589 12.2412L13.1399 10.7921C12.7586 10.4107 12.1484 10.4107 11.7671 10.7921C11.5383 11.0209 11.2332 11.0209 11.0807 10.7921C10.8518 10.5632 10.8518 10.2582 11.0807 10.1056C11.6145 9.57176 12.301 9.41921 12.9874 9.57175C13.1399 9.57175 13.2925 9.64803 13.3687 9.72429C13.445 9.72429 13.445 9.80055 13.5213 9.80055C13.5975 9.80055 13.5975 9.87682 13.6738 9.87682C13.7501 9.95309 13.8263 10.0294 13.9789 10.1056L15.428 11.5547C16.1907 12.3174 16.1907 13.614 15.428 14.3767L14.5128 15.2919C12.7586 17.0461 8.33497 15.4445 4.44526 11.5547C0.555543 7.66503 -1.0461 3.24142 0.708082 1.48724L1.62331 0.572026C2.30973 -0.190662 3.6063 -0.190663 4.36899 0.572026ZM9.32647 11.1734C9.09766 11.4022 8.79259 11.4022 8.64005 11.1734C8.41124 10.9446 8.41124 10.6395 8.64005 10.487C8.86885 10.2582 9.17393 10.2582 9.32647 10.487C9.47901 10.7158 9.47901 11.0209 9.32647 11.1734Z" />
</svg>
