<svg xmlns="http://www.w3.org/2000/svg" viewBox="0 0 48 48"><path d="M35.1 18.5C34.7 18.1 34.8 17.6 35.1 17.3L35.5 16.8C36.7 15.6 36.7 13.5 35.5 12.3 35 11.8 34.2 11.4 33.4 11.4 32.5 11.4 31.7 11.6 31.2 12.3L30.8 12.9C30.5 13.1 30.1 13.1 29.7 13 25.4 9.8 20.4 8 15.7 8 15.4 8 15.1 8 15 8 14.7 8 14.5 8.1 14.3 8.4 14.2 8.8 14.3 9.2 14.7 9.4 18.2 10.8 22.4 13.7 25.8 16.5 26.2 16.8 26.2 17.3 25.8 17.7L25.3 18.3 8.9 34.6C7.7 35.8 7.7 37.8 8.9 39.1 9.5 39.6 10.3 40 11.1 40 11.9 40 12.7 39.7 13.2 39.1L29.2 23.3C29.4 23 29.4 22.6 29.2 22.3 28.9 22 28.5 22 28.2 22.3L12.3 38C11.6 38.6 10.5 38.6 10 38 9.3 37.3 9.3 36.2 10 35.7L26.3 19.5C26.3 19.5 27.4 18.4 28.1 17.7 28.4 17.5 28.4 16.9 28.1 16.6L26.7 15.4C24 13.1 21.3 11.1 18.4 9.6 21.7 10.2 25.3 11.6 28.2 13.8L29.6 14.9C29.8 15.2 30.4 15.2 30.7 14.8L31.5 13.9 32.1 13.4C32.4 13.1 32.8 12.9 33.4 12.9 33.8 12.9 34.2 13 34.6 13.4 35.2 14.1 35.2 15.2 34.6 15.7L34 16.2 33.1 17.2C32.8 17.5 32.8 18 33.1 18.3L34.2 19.6C36.3 22.7 37.8 26.1 38.4 29.5 36.9 26.9 35.1 24.3 33.1 21.9 32.8 21.6 32.4 21.6 32.1 21.9 32.1 21.9 32.1 21.9 32 22 31.7 22.3 31.7 22.7 32 23 34.7 26.2 37.1 29.9 38.6 33.4 38.8 33.7 39 33.8 39.3 33.8H39.4C39.7 33.8 40 33.4 40 33.1 40.2 28.1 38.4 22.9 35.1 18.5ZM32 19.7C32.5 19.7 33 20.2 33 20.7 33 21.2 32.5 21.6 32 21.6 31.5 21.6 31 21.2 31 20.7 31 20 31.5 19.7 32 19.7Z" /></svg>
