<svg viewBox="0 0 135 101" xmlns="http://www.w3.org/2000/svg">
<path d="M130.12 33.754L76.3621 87.5117C76.0084 87.8654 76.0084 88.2191 75.6547 88.5727L68.2277 95.9998C65.0447 99.1828 60.447 100.951 56.2029 100.951C51.9589 100.951 47.7149 99.1828 44.1782 95.9998L34.6291 86.4507C34.2754 86.0971 34.2754 85.7434 33.9218 85.3897L5.27454 56.7425C-1.09151 50.3765 -1.09151 39.7664 5.27454 33.0467L12.7016 25.6196C19.0676 19.2536 29.6777 19.2536 36.3974 25.6196L47.0075 36.2297C50.1905 39.4127 57.6176 39.4127 60.8006 36.2297L81.6671 15.3632C83.4355 13.5948 85.9111 13.5948 87.6795 15.3632C89.4478 17.1315 89.4478 19.6072 87.6795 21.3756L65.3983 43.6567C65.3983 43.6567 65.3983 43.6567 65.0447 43.6567C59.3859 49.3154 48.0685 49.3154 42.0561 43.6567C42.0561 43.6567 42.0561 43.6567 41.7025 43.6567L31.4461 33.4003C27.202 29.1563 20.836 29.1563 16.592 33.4003L12.3479 37.6444C8.10389 41.8884 8.10389 48.2544 12.3479 52.4985L40.9951 81.1457C41.3488 81.4994 41.3488 81.853 41.7025 82.2067L48.0685 88.5727C50.1905 90.6948 53.0199 91.7558 55.4956 91.7558C58.3249 91.7558 60.8006 90.6948 62.9226 88.5727L67.1667 84.3287C67.5203 83.975 67.5203 83.6214 67.874 83.2677L121.632 29.51C125.876 25.2659 125.876 18.8999 121.632 14.6559L116.68 9.70449C116.327 9.35082 115.619 8.64348 115.266 8.28981C113.497 6.52146 113.497 4.04578 115.266 2.27743C117.034 0.509085 119.51 0.509085 121.278 2.27743C121.985 2.98477 122.339 3.33844 122.693 3.69211L129.059 10.0582C136.486 16.7779 136.486 27.388 130.12 33.754ZM97.2286 12.5338C94.7529 12.5338 92.9845 10.7655 92.9845 8.28981C92.9845 5.81412 94.7529 4.04578 97.2286 4.04578C99.7042 4.04578 101.473 5.81412 101.473 8.28981C101.473 10.7655 99.7042 12.5338 97.2286 12.5338Z"/>
</svg>
