<svg viewBox="0 0 18 18" xmlns="http://www.w3.org/2000/svg">
<path fill="#7fd344" d="M6.90039 0.5C8.6243 0.5 10.2776 1.18482 11.4966 2.40381C12.7156 3.62279 13.4004 5.27609 13.4004 7C13.4004 8.61 12.8104 10.09 11.8404 11.23L12.1104 11.5H12.9004L17.9004 16.5L16.4004 18L11.4004 13V12.21L11.1304 11.94C9.95094 12.9468 8.4511 13.4999 6.90039 13.5C5.17648 13.5 3.52318 12.8152 2.3042 11.5962C1.08521 10.3772 0.400391 8.72391 0.400391 7C0.400391 5.27609 1.08521 3.62279 2.3042 2.40381C3.52318 1.18482 5.17648 0.5 6.90039 0.5ZM6.90039 2.5C4.40039 2.5 2.40039 4.5 2.40039 7C2.40039 9.5 4.40039 11.5 6.90039 11.5C9.40039 11.5 11.4004 9.5 11.4004 7C11.4004 4.5 9.40039 2.5 6.90039 2.5Z"/>
</svg>
