<svg viewBox="0 0 16 16" xmlns="http://www.w3.org/2000/svg">
<path d="M8.03686 2.21247C7.74193 2.21247 7.52073 1.99127 7.52073 1.69634C7.52073 1.4014 7.74193 1.18021 8.03686 1.18021C8.33179 1.18021 8.553 1.4014 8.553 1.69634C8.553 1.99127 8.33179 2.21247 8.03686 2.21247ZM15.9263 6.5627C15.9263 6.5627 15.9263 6.63643 15.9263 6.5627C15.9263 6.71016 15.9263 6.78389 15.8525 6.85762C15.8525 6.93136 15.8525 7.0051 15.7788 7.0051C15.7788 7.0051 15.7788 7.07882 15.7051 7.07882C15.6313 7.15256 15.6313 7.30003 15.5576 7.37376C15.4839 7.52123 15.3364 7.66869 15.1889 7.74242L7.59447 15.3369C7.2258 15.7055 6.70967 15.9267 6.19354 15.9267C5.67741 15.9267 5.16129 15.7793 4.79262 15.3369L0.589864 11.1341C0.2212 10.7655 0 10.2493 0 9.7332C0 9.21708 0.147468 8.70094 0.589864 8.33228L6.34101 2.58114C6.56221 2.35994 6.85714 2.35994 7.07834 2.58114C7.29954 2.80233 7.29954 3.09726 7.07834 3.24473L1.62212 8.70094C1.03226 9.2908 1.03226 10.2493 1.62212 10.8392L5.16129 14.3784C5.75115 14.9682 6.70967 14.9682 7.29953 14.3784L14.5253 7.15256C14.7465 6.93136 14.894 6.63643 14.9677 6.3415C14.9677 6.26776 14.9677 6.19404 14.9677 6.04657V2.35994C14.9677 1.69634 14.3779 1.10648 13.7143 1.10648H10.0276C9.73272 1.10648 9.51151 0.885276 9.51151 0.590345C9.51151 0.295415 9.73272 0.0742188 10.0276 0.0742188H14.0092C15.1152 0.0742188 16 0.959009 16 2.065V6.1203C15.9263 6.34149 15.9263 6.48896 15.9263 6.5627ZM12.0184 5.16178C12.3134 5.16178 12.5346 5.38298 12.5346 5.67791C12.5346 5.97284 12.3134 6.19403 12.0184 6.19403C10.9124 6.19403 10.0276 5.30924 10.0276 4.20325C10.0276 3.09726 10.9124 2.21247 12.0184 2.21247C13.1244 2.21247 14.0092 3.09726 14.0092 4.20325C14.0092 4.49818 13.788 4.71938 13.4931 4.71938C13.1981 4.71938 12.977 4.49818 12.977 4.20325C12.977 3.68712 12.5346 3.24473 12.0184 3.24473C11.5023 3.24473 11.0599 3.68712 11.0599 4.20325C10.9862 4.71938 11.4286 5.16178 12.0184 5.16178Z" />
</svg>
