<svg viewBox="0 0 16 12" xmlns="http://www.w3.org/2000/svg">
  <path fill-rule="evenodd" clip-rule="evenodd" d="M15.5 0.72747C15.5 0.47747 15.25 0.22747 15 0.22747C14.75 0.22747 14.5 0.394137 14.5 0.72747C14.5 0.97747 14.75 1.22747 15 1.22747C15.25 1.22747 15.5 0.97747 15.5 0.72747ZM13.6727 8.94343C13.6727 7.97373 12.897 7.13333 11.8626 7.13333C10.8283 7.13333 10.0525 7.90909 10.0525 8.94343C10.0525 9.91313 10.8283 10.7535 11.8626 10.7535C12.8323 10.7535 13.6727 9.97777 13.6727 8.94343ZM6.56162 8.94343C6.56162 7.97373 5.78586 7.13333 4.75152 7.13333C3.71717 7.13333 2.94141 7.90909 2.94141 8.94343C2.94141 9.91313 3.71717 10.7535 4.75152 10.7535C5.72121 10.7535 6.56162 9.97777 6.56162 8.94343ZM13.4788 3.44848H10.7636L8.95354 6.74545C8.88889 6.87474 8.7596 7.00404 8.56566 6.93939L4.62222 5.96969V6.35757C5.91515 6.35757 6.94949 7.32727 7.14343 8.55555H9.21212C9.40606 7.32727 10.4404 6.35757 11.7333 6.35757C13.0263 6.35757 14.0606 7.32727 14.2545 8.55555H15.2242V5.71111H14.7071C14.5778 5.71111 14.4485 5.64646 14.3838 5.51717L13.4788 3.44848ZM14.5778 2.02626C14.5778 1.83232 14.7071 1.63838 14.901 1.63838C15.1596 1.63838 15.2889 1.83232 15.3535 2.02626V2.99596C15.3535 3.1899 15.1596 3.38384 14.9657 3.38384H14.3192L14.9657 4.8707H15.6121C15.8061 4.8707 16 5.06464 16 5.25858V8.87878C16 9.07272 15.8061 9.26666 15.6121 9.26666H14.3192C14.1253 10.4949 13.0909 11.4646 11.798 11.4646C10.5051 11.4646 9.47071 10.4949 9.27677 9.26666H7.20808C7.01414 10.4949 5.9798 11.4646 4.68687 11.4646C3.32929 11.4646 2.16566 10.3657 2.16566 8.94343C2.16566 7.7798 2.94141 6.8101 3.97576 6.48687V5.77575L0.226263 4.8707C0.226263 4.8707 0.161616 4.8707 0.0969697 4.80606C-0.0323232 4.67676 -0.0323232 4.41818 0.0969697 4.28889L1.51919 2.09091C1.58384 2.02626 1.64849 1.96161 1.77778 1.96161H8.56566L9.47071 0.668685C9.53535 0.539392 9.66465 0.474745 9.79394 0.474745H13.6727C13.9313 0.474745 14.0606 0.668685 14.0606 0.862624C14.0606 1.12121 13.8667 1.2505 13.6727 1.2505H9.98788L9.08283 2.54343C9.01818 2.67272 8.88889 2.73737 8.7596 2.73737H2.03636L1.06667 4.35353L8.56566 6.16363L10.2465 2.93131C10.3111 2.80202 10.4404 2.73737 10.5697 2.73737H14.5778V2.02626Z"/>
</svg>
