<svg viewBox="0 0 23 12"  xmlns="http://www.w3.org/2000/svg">
<path d="M16.9862 0H6.96615C3.6495 0 0.954102 2.69 0.954102 6C0.954102 9.31 3.6495 12 6.96615 12H16.9862C20.3029 12 22.9983 9.31 22.9983 6C22.9983 2.69 20.3029 0 16.9862 0ZM16.9862 10H6.96615C4.75171 10 2.95812 8.21 2.95812 6C2.95812 3.79 4.75171 2 6.96615 2H16.9862C19.2007 2 20.9943 3.79 20.9943 6C20.9943 8.21 19.2007 10 16.9862 10ZM3.96012 6C3.96012 4.34 5.30282 3 6.96615 3C8.62948 3 9.97217 4.34 9.97217 6C9.97217 7.66 8.62948 9 6.96615 9C5.30282 9 3.96012 7.66 3.96012 6Z" />
</svg>
