<svg viewBox="0 0 14 11" xmlns="http://www.w3.org/2000/svg">
<path fill-rule="evenodd" clip-rule="evenodd" d="M5.00065 5.49967C6.28732 5.49967 7.33398 4.45301 7.33398 3.16634C7.33398 1.87967 6.28732 0.833008 5.00065 0.833008C3.71398 0.833008 2.66732 1.87967 2.66732 3.16634C2.66732 4.45301 3.71398 5.49967 5.00065 5.49967ZM5.00065 2.16634C5.55398 2.16634 6.00065 2.61301 6.00065 3.16634C6.00065 3.71967 5.55398 4.16634 5.00065 4.16634C4.44732 4.16634 4.00065 3.71967 4.00065 3.16634C4.00065 2.61301 4.44732 2.16634 5.00065 2.16634ZM2.18065 8.83301H5.03398C5.01398 8.93968 5.00065 9.05301 5.00065 9.16634V10.1663H0.333984V9.16634C0.333984 7.61301 3.44065 6.83301 5.00065 6.83301C5.37398 6.83301 5.83398 6.87967 6.32065 6.96634C5.84732 7.28634 5.45398 7.68634 5.22732 8.17301C5.19065 8.17301 5.15232 8.17134 5.11398 8.16967C5.07565 8.16801 5.03732 8.16634 5.00065 8.16634C3.98065 8.16634 2.84065 8.49967 2.18065 8.83301ZM10.0007 7.16634C8.77398 7.16634 6.33398 7.83967 6.33398 9.16634V10.1663H13.6673V9.16634C13.6673 7.83967 11.2273 7.16634 10.0007 7.16634ZM11.6673 4.49967C11.6673 5.12634 11.314 5.66634 10.8073 5.95301C10.5673 6.08634 10.294 6.16634 10.0007 6.16634C9.70732 6.16634 9.43398 6.08634 9.19398 5.95301C8.68732 5.66634 8.33398 5.12634 8.33398 4.49967C8.33398 3.57967 9.08065 2.83301 10.0007 2.83301C10.9207 2.83301 11.6673 3.57967 11.6673 4.49967Z" />
</svg>
