<svg viewBox="0 0 16 12" xmlns="http://www.w3.org/2000/svg">
  <path fill-rule="evenodd" clip-rule="evenodd" d="M1.20272 10.506H15.0694C15.2109 10.506 15.4231 10.479 15.4231 10.1961V9.58624C15.4231 9.37399 15.2816 9.2325 15.0694 9.2325H11.8149C11.6027 9.2325 11.3905 9.02025 11.3905 8.80801C11.3905 8.59576 11.6027 8.38352 11.8149 8.38352H14.6449C14.5034 6.04883 13.0177 3.85564 10.8952 2.86516L10.117 2.51142L10.1877 1.80394C8.84352 1.37945 7.35781 1.37945 6.01359 1.80394L6.08434 2.51142L5.30611 2.86516C3.18367 3.92639 1.7687 6.04883 1.62721 8.38352H5.23536C4.95237 7.95903 4.81088 7.39305 4.81088 6.82706C4.81088 4.98761 6.36734 3.57264 8.20679 3.64339C9.834 3.71414 11.1075 4.98761 11.249 6.54407C11.249 6.96856 11.249 7.39305 11.1075 7.74679C11.0367 8.02978 10.7537 8.10053 10.5415 8.02978C10.4 7.95903 10.2585 7.74679 10.3292 7.53454C10.4 7.3223 10.4707 7.03931 10.4707 6.82706C10.4707 5.48285 9.26801 4.35087 7.85305 4.49237C6.72108 4.56312 5.80135 5.48285 5.7306 6.61482C5.65985 7.1808 5.80135 7.74679 6.08434 8.17128C6.22584 8.38352 6.22584 8.66651 6.08434 8.87876C5.94285 9.091 5.7306 9.2325 5.44761 9.2325H1.20272C1.06122 9.2325 0.919726 9.37399 0.919726 9.51549V10.223C0.919726 10.3645 1.06122 10.506 1.20272 10.506ZM11.0367 1.94544C13.5836 3.00666 15.2816 5.55359 15.4231 8.31277C15.7768 8.31277 16.0598 8.59577 15.9891 9.02025V10.789C15.9891 11.072 15.7768 11.3549 15.4231 11.3549H0.707482C0.282993 11.3549 0 11.0012 0 10.6475V9.02025C0 8.59577 0.353741 8.31277 0.707482 8.31277C0.848978 5.55359 2.54693 3.07741 5.09387 1.94544H5.16462L5.09387 1.52095C5.09387 1.3087 5.23536 1.16721 5.37686 1.09646C7.14557 0.530474 9.05577 0.459726 10.7537 1.09646C10.966 1.09646 11.0367 1.3087 11.0367 1.52095L10.966 1.94544H11.0367ZM10.8952 8.66651C10.8952 8.45427 10.7537 8.31277 10.5415 8.31277C10.3292 8.31277 10.117 8.52502 10.1877 8.66651C10.1877 8.87876 10.3292 9.02025 10.5415 9.02025C10.7537 9.02025 10.8952 8.87876 10.8952 8.66651Z"/>
</svg>
