<svg viewBox="0 0 24 24" xmlns="http://www.w3.org/2000/svg">
  <path d="M8.57941 14.0853C8.57941 14.3886 8.35191 14.6161 8.04859 14.6161C7.74528 14.6161 7.51779 14.3886 7.51779 14.0853C7.51779 13.782 7.74528 13.5545 8.04859 13.5545C8.35191 13.5545 8.57941 13.782 8.57941 14.0853ZM17.9822 20H6.07704C5.01543 20 4.10547 19.09 4.10547 18.0284V16.5118C4.10547 15.7536 4.71211 14.9953 5.69789 14.3886C5.77372 14.3128 5.84954 14.3128 6.0012 14.3128C6.22869 14.3128 6.45618 14.5403 6.45618 14.7678C6.45618 14.9194 6.38035 15.0711 6.22869 15.1469C5.54623 15.5261 5.09125 15.981 5.09125 16.436V17.9526C5.09125 18.4834 5.54623 18.9384 6.07704 18.9384H17.9822C18.5131 18.9384 18.968 18.4834 18.968 17.9526V16.436C18.968 15.0711 15.859 13.9337 11.9917 13.9337C11.0818 13.9337 10.2476 13.6303 9.56518 13.0995C9.1102 12.7204 8.73106 12.2654 8.42774 11.7346C8.42774 11.7346 8.42775 11.6588 8.35192 11.6588C8.27609 11.5829 8.27609 11.4313 8.20026 11.3555C8.20026 11.3555 8.20026 11.2796 8.12443 11.2796C8.12443 11.2038 8.04859 11.0521 8.04859 10.9763C8.04859 10.9005 8.04859 10.9005 8.04859 10.8246C8.04859 10.7488 7.97277 10.5972 7.97277 10.5213C7.97277 10.4455 7.97277 10.4455 7.97277 10.3697C7.97277 10.218 7.97277 10.0664 7.97277 9.9147V6.95734C7.97277 5.28909 9.33769 4 10.9301 4H12.9017C14.5699 4 15.859 5.36492 15.859 6.95734V9.9147C15.859 10.5972 15.7074 11.2038 15.4041 11.8104C15.3282 12.0379 15.1766 12.1896 14.9491 12.1896C14.6458 12.1896 14.4183 11.9621 14.4183 11.6588C14.4183 11.5829 14.4183 11.5071 14.4941 11.4313C14.7216 11.0521 14.8732 10.5972 14.8732 10.1422C14.8732 10.0664 14.8732 9.99053 14.8732 9.9147V6.95734C14.8732 5.89573 13.9633 4.9858 12.9017 4.9858H10.9301C9.8685 4.9858 8.95855 5.89573 8.95855 6.95734V9.9147C8.95855 9.99053 8.95855 10.0664 8.95855 10.1422C9.03438 11.6588 10.2477 12.872 11.7642 12.9479C11.8401 12.9479 11.8401 12.9479 11.9159 12.9479C12.75 12.9479 13.5841 13.0237 14.3424 13.0995C14.5699 13.0995 14.7216 13.1754 14.9491 13.1754C15.1007 13.1754 15.3282 13.2512 15.4799 13.2512H15.5557C15.9349 13.327 16.2382 13.4028 16.5415 13.4787C16.5415 13.4787 16.5415 13.4787 16.6173 13.4787C16.769 13.5545 16.9206 13.5545 17.0723 13.6303C17.0723 13.6303 17.0723 13.6303 17.1481 13.6303C17.2998 13.7062 17.4514 13.7062 17.5273 13.782C17.6789 13.8578 17.8306 13.9337 17.9064 13.9337C17.9064 13.9337 17.9064 13.9337 17.9822 13.9337C18.1339 14.0095 18.2097 14.0853 18.3614 14.1611C18.4372 14.237 18.5889 14.3128 18.6647 14.3886C18.6647 14.3886 18.6647 14.3886 18.7405 14.3886C18.8164 14.4645 18.968 14.5403 19.0439 14.6161C19.1197 14.6919 19.1955 14.7678 19.2714 14.8436C19.3472 14.9194 19.423 14.9953 19.4988 15.0711C19.4988 15.0711 19.4988 15.0711 19.5747 15.1469C19.6505 15.2228 19.6505 15.2986 19.7263 15.3744C19.8021 15.4502 19.8021 15.5261 19.8021 15.6019C19.8021 15.6777 19.878 15.7536 19.878 15.8294C19.878 15.8294 19.878 15.8294 19.878 15.9052C19.878 15.981 19.878 16.0569 19.878 16.1327V17.6493C20.0296 19.1659 19.1197 20 17.9822 20Z"/>
</svg>
