<svg xmlns="http://www.w3.org/2000/svg" viewBox="0 0 71 56">
  <path d="M67.02 19.59L71 9.83 62.38 9.89 59.29 6.22 42.83 0 33.86 5.86 27.26 4.2V11.31L23.45 19.59 25.18 23.62 21.91 27.29 18.52 25.87 5.57 28.59 4.08 33.51 3.19 36.35 2 37.23 8.42 35.75 13.11 36.41 12.94 38.77 24.58 36.41 27.02 45.11H31.06L28.98 51.32 31.6 56 40.63 51.5 51.68 49.61 56.44 47.65 56.97 43.15 58.82 41.5 59.41 38.18 61.43 38.95 64.7 33.45 63.45 25.93 69.57 24.21 67.02 19.59Z" fill="#BDBDBD"/>
  <path d="M3.76 5.05L6.32 12.27 8.86 5.05H11.55V15H9.5V12.28L9.7 7.58 7.02 15H5.61L2.93 7.59 3.13 12.28V15H1.08V5.05H3.76ZM21.22 13.74C20.85 14.18 20.33 14.53 19.66 14.77 18.98 15.02 18.23 15.14 17.41 15.14 16.55 15.14 15.8 14.95 15.14 14.58 14.5 14.2 14 13.65 13.64 12.94 13.29 12.22 13.11 11.38 13.1 10.41V9.74C13.1 8.74 13.27 7.88 13.6 7.16 13.94 6.43 14.42 5.87 15.05 5.49 15.68 5.1 16.42 4.91 17.27 4.91 18.45 4.91 19.37 5.19 20.04 5.76 20.7 6.32 21.1 7.14 21.22 8.21H19.22C19.13 7.64 18.93 7.23 18.62 6.96 18.31 6.7 17.88 6.56 17.33 6.56 16.63 6.56 16.1 6.83 15.74 7.35 15.37 7.87 15.19 8.65 15.18 9.69V10.32C15.18 11.37 15.38 12.16 15.78 12.69 16.18 13.22 16.76 13.49 17.52 13.49 18.29 13.49 18.84 13.33 19.17 13V11.28H17.3V9.77H21.22V13.74Z" fill="#000"/>
</svg>
